Russolo-72ptMedium.ufo
<glyph name="percent" format="2">
  <advance width="1794"/>
  <unicode hex="0025"/>
  <note>
percent
</note>
  <outline>
    <contour>
      <point x="350" y="-28" type="line"/>
      <point x="455" y="-28" type="line"/>
      <point x="1397" y="1448" type="line"/>
      <point x="1292" y="1448" type="line"/>
    </contour>
    <contour>
      <point x="1337" y="-27" type="curve" smooth="yes"/>
      <point x="1566" y="-27"/>
      <point x="1700" y="137"/>
      <point x="1700" y="354" type="curve" smooth="yes"/>
      <point x="1700" y="566"/>
      <point x="1559" y="734"/>
      <point x="1337" y="734" type="curve" smooth="yes"/>
      <point x="1116" y="734"/>
      <point x="974" y="566"/>
      <point x="974" y="354" type="curve" smooth="yes"/>
      <point x="974" y="143"/>
      <point x="1103" y="-27"/>
    </contour>
    <contour>
      <point x="1337" y="-8" type="curve" smooth="yes"/>
      <point x="1204" y="-8"/>
      <point x="1122" y="136"/>
      <point x="1122" y="354" type="curve" smooth="yes"/>
      <point x="1122" y="571"/>
      <point x="1204" y="716"/>
      <point x="1337" y="716" type="curve" smooth="yes"/>
      <point x="1470" y="716"/>
      <point x="1552" y="572"/>
      <point x="1552" y="354" type="curve" smooth="yes"/>
      <point x="1552" y="136"/>
      <point x="1471" y="-8"/>
    </contour>
    <contour>
      <point x="457" y="706" type="curve" smooth="yes"/>
      <point x="686" y="706"/>
      <point x="820" y="870"/>
      <point x="820" y="1087" type="curve" smooth="yes"/>
      <point x="820" y="1299"/>
      <point x="679" y="1467"/>
      <point x="457" y="1467" type="curve" smooth="yes"/>
      <point x="236" y="1467"/>
      <point x="94" y="1299"/>
      <point x="94" y="1087" type="curve" smooth="yes"/>
      <point x="94" y="876"/>
      <point x="223" y="706"/>
    </contour>
    <contour>
      <point x="457" y="725" type="curve" smooth="yes"/>
      <point x="324" y="725"/>
      <point x="242" y="870"/>
      <point x="242" y="1087" type="curve" smooth="yes"/>
      <point x="242" y="1304"/>
      <point x="324" y="1448"/>
      <point x="457" y="1448" type="curve" smooth="yes"/>
      <point x="590" y="1448"/>
      <point x="673" y="1305"/>
      <point x="673" y="1087" type="curve" smooth="yes"/>
      <point x="673" y="870"/>
      <point x="591" y="725"/>
    </contour>
  </outline>
</glyph>
<glyph name="ampersand" format="2">
  <advance width="1291"/>
  <unicode hex="0026"/>
  <note>
ampersand
</note>
  <guideline x="731" y="1442" angle="270"/>
  <outline>
    <contour>
      <point x="587" y="-32" type="curve" smooth="yes"/>
      <point x="712" y="-32"/>
      <point x="817" y="-9"/>
      <point x="889" y="32" type="curve"/>
      <point x="858" y="73" type="line"/>
      <point x="794" y="16"/>
      <point x="677" y="-10"/>
      <point x="581" y="-10" type="curve" smooth="yes"/>
      <point x="400" y="-10"/>
      <point x="302" y="191"/>
      <point x="302" y="389" type="curve" smooth="yes"/>
      <point x="302" y="625"/>
      <point x="431" y="773"/>
      <point x="597" y="773" type="curve"/>
      <point x="601" y="793" type="line"/>
      <point x="465" y="793"/>
      <point x="380" y="949"/>
      <point x="380" y="1100" type="curve" smooth="yes"/>
      <point x="380" y="1281"/>
      <point x="463" y="1450"/>
      <point x="637" y="1450" type="curve" smooth="yes"/>
      <point x="811" y="1450" type="line"/>
      <point x="811" y="1468" type="line"/>
      <point x="633" y="1468" type="line" smooth="yes"/>
      <point x="360" y="1468"/>
      <point x="203" y="1326"/>
      <point x="203" y="1100" type="curve" smooth="yes"/>
      <point x="203" y="954"/>
      <point x="276" y="833"/>
      <point x="421" y="787" type="curve"/>
      <point x="247" y="747"/>
      <point x="110" y="595"/>
      <point x="110" y="383" type="curve" smooth="yes"/>
      <point x="110" y="128"/>
      <point x="305" y="-32"/>
    </contour>
    <contour>
      <point x="1010" y="-26" type="curve" smooth="yes"/>
      <point x="1093" y="-26"/>
      <point x="1196" y="2"/>
      <point x="1215" y="15" type="curve"/>
      <point x="1215" y="50" type="line"/>
      <point x="1175" y="28"/>
      <point x="1089" y="3"/>
      <point x="1047" y="3" type="curve" smooth="yes"/>
      <point x="956" y="3"/>
      <point x="996" y="126"/>
      <point x="996" y="470" type="curve" smooth="yes"/>
      <point x="996" y="773" type="line"/>
      <point x="1161" y="773" type="line"/>
      <point x="1161" y="793" type="line"/>
      <point x="996" y="793" type="line"/>
      <point x="996" y="1120" type="line"/>
      <point x="956" y="1120" type="line"/>
      <point x="956" y="824"/>
      <point x="840" y="793"/>
      <point x="680" y="793" type="curve" smooth="yes"/>
      <point x="600" y="793" type="line"/>
      <point x="596" y="773" type="line"/>
      <point x="819" y="773" type="line"/>
      <point x="819" y="306" type="line" smooth="yes"/>
      <point x="819" y="95"/>
      <point x="846" y="-26"/>
    </contour>
  </outline>
</glyph>
<glyph name="comma" format="2">
  <advance width="458"/>
  <unicode hex="002C"/>
  <note>
comma
</note>
  <outline>
    <contour>
      <point x="139" y="-188" type="curve"/>
      <point x="225" y="-188" type="line"/>
      <point x="268" y="-77"/>
      <point x="319" y="47"/>
      <point x="339" y="141" type="curve"/>
      <point x="203" y="141" type="line"/>
      <point x="168" y="57"/>
      <point x="144" y="-109"/>
    </contour>
  </outline>
</glyph>
<glyph name="period" format="2">
  <advance width="407"/>
  <unicode hex="002E"/>
  <note>
period
</note>
  <outline>
    <contour>
      <point x="203" y="-21" type="curve" smooth="yes"/>
      <point x="251" y="-21"/>
      <point x="290" y="18"/>
      <point x="290" y="67" type="curve" smooth="yes"/>
      <point x="290" y="115"/>
      <point x="251" y="153"/>
      <point x="203" y="153" type="curve" smooth="yes"/>
      <point x="155" y="153"/>
      <point x="117" y="115"/>
      <point x="117" y="67" type="curve" smooth="yes"/>
      <point x="117" y="18"/>
      <point x="155" y="-21"/>
    </contour>
  </outline>
</glyph>
<glyph name="slash" format="2">
  <advance width="583"/>
  <unicode hex="002F"/>
  <note>
slash
</note>
  <outline>
    <contour>
      <point x="6" y="-413" type="line"/>
      <point x="101" y="-413" type="line"/>
      <point x="577" y="1505" type="line"/>
      <point x="483" y="1505" type="line"/>
    </contour>
  </outline>
</glyph>
<glyph name="two" format="2">
  <advance width="1068"/>
  <unicode hex="0032"/>
  <note>
two
</note>
  <outline>
    <contour>
      <point x="43" y="0" type="line"/>
      <point x="989" y="0" type="line"/>
      <point x="989" y="114" type="line"/>
      <point x="174" y="114" type="line"/>
      <point x="136" y="75" type="line"/>
      <point x="345" y="245"/>
      <point x="623" y="491"/>
      <point x="773" y="657" type="curve" smooth="yes"/>
      <point x="914" y="814"/>
      <point x="989" y="934"/>
      <point x="989" y="1072" type="curve" smooth="yes"/>
      <point x="989" y="1311"/>
      <point x="821" y="1468"/>
      <point x="542" y="1468" type="curve" smooth="yes"/>
      <point x="280" y="1468"/>
      <point x="90" y="1288"/>
      <point x="90" y="1032" type="curve" smooth="yes"/>
      <point x="90" y="1022"/>
      <point x="91" y="1006"/>
      <point x="93" y="988" type="curve"/>
      <point x="258" y="999" type="line"/>
      <point x="258" y="1020" type="line" smooth="yes"/>
      <point x="258" y="1242"/>
      <point x="359" y="1446"/>
      <point x="540" y="1446" type="curve" smooth="yes"/>
      <point x="704" y="1446"/>
      <point x="815" y="1329"/>
      <point x="815" y="1104" type="curve" smooth="yes"/>
      <point x="815" y="863"/>
      <point x="649" y="601"/>
      <point x="424" y="378" type="curve" smooth="yes"/>
    </contour>
  </outline>
</glyph>
<glyph name="eight" format="2">
  <advance width="1039"/>
  <unicode hex="0038"/>
  <note>
eight
</note>
  <outline>
    <contour>
      <point x="504" y="-41" type="curve" smooth="yes"/>
      <point x="785" y="-41"/>
      <point x="974" y="127"/>
      <point x="973" y="372" type="curve" smooth="yes"/>
      <point x="972" y="583"/>
      <point x="835" y="729"/>
      <point x="571" y="827" type="curve" smooth="yes"/>
      <point x="362" y="904"/>
      <point x="278" y="988"/>
      <point x="277" y="1110" type="curve" smooth="yes"/>
      <point x="276" y="1311"/>
      <point x="381" y="1426"/>
      <point x="514" y="1429" type="curve" smooth="yes"/>
      <point x="700" y="1432"/>
      <point x="844" y="1316"/>
      <point x="845" y="1129" type="curve" smooth="yes"/>
      <point x="846" y="974"/>
      <point x="761" y="858"/>
      <point x="599" y="808" type="curve"/>
      <point x="620" y="804" type="line"/>
      <point x="807" y="864"/>
      <point x="892" y="987"/>
      <point x="888" y="1135" type="curve" smooth="yes"/>
      <point x="884" y="1317"/>
      <point x="740" y="1452"/>
      <point x="526" y="1451" type="curve" smooth="yes"/>
      <point x="307" y="1450"/>
      <point x="134" y="1324"/>
      <point x="134" y="1107" type="curve" smooth="yes"/>
      <point x="134" y="919"/>
      <point x="236" y="808"/>
      <point x="426" y="735" type="curve" smooth="yes"/>
      <point x="734" y="616"/>
      <point x="807" y="509"/>
      <point x="807" y="338" type="curve" smooth="yes"/>
      <point x="807" y="109"/>
      <point x="684" y="-18"/>
      <point x="505" y="-19" type="curve" smooth="yes"/>
      <point x="250" y="-20"/>
      <point x="124" y="140"/>
      <point x="123" y="353" type="curve" smooth="yes"/>
      <point x="122" y="556"/>
      <point x="246" y="710"/>
      <point x="397" y="760" type="curve"/>
      <point x="380" y="766" type="line"/>
      <point x="186" y="702"/>
      <point x="77" y="536"/>
      <point x="77" y="350" type="curve" smooth="yes"/>
      <point x="77" y="127"/>
      <point x="222" y="-41"/>
    </contour>
  </outline>
</glyph>
<glyph name="nine" format="2">
  <advance width="1065"/>
  <unicode hex="0039"/>
  <note>
nine
</note>
  <outline>
    <contour>
      <point x="245" y="-38" type="line"/>
      <point x="424" y="10"/>
      <point x="570" y="86"/>
      <point x="687" y="195" type="curve" smooth="yes"/>
      <point x="751" y="255"/>
      <point x="790" y="303"/>
      <point x="831" y="367" type="curve" smooth="yes"/>
      <point x="932" y="522"/>
      <point x="991" y="704"/>
      <point x="991" y="916" type="curve" smooth="yes"/>
      <point x="991" y="1257"/>
      <point x="839" y="1456"/>
      <point x="533" y="1459" type="curve" smooth="yes"/>
      <point x="243" y="1462"/>
      <point x="53" y="1283"/>
      <point x="53" y="1010" type="curve" smooth="yes"/>
      <point x="53" y="752"/>
      <point x="237" y="554"/>
      <point x="504" y="554" type="curve" smooth="yes"/>
      <point x="717" y="554"/>
      <point x="821" y="686"/>
      <point x="864" y="860" type="curve"/>
      <point x="842" y="860" type="line"/>
      <point x="828" y="669"/>
      <point x="786" y="529"/>
      <point x="729" y="415" type="curve" smooth="yes"/>
      <point x="625" y="206"/>
      <point x="461" y="53"/>
      <point x="245" y="-12" type="curve"/>
    </contour>
    <contour>
      <point x="497" y="576" type="curve" smooth="yes"/>
      <point x="278" y="576"/>
      <point x="222" y="807"/>
      <point x="222" y="1005" type="curve" smooth="yes"/>
      <point x="222" y="1270"/>
      <point x="310" y="1439"/>
      <point x="517" y="1437" type="curve" smooth="yes"/>
      <point x="750" y="1434"/>
      <point x="833" y="1232"/>
      <point x="831" y="977" type="curve" smooth="yes"/>
      <point x="830" y="743"/>
      <point x="693" y="576"/>
    </contour>
  </outline>
</glyph>
<glyph name="D" format="2">
  <advance width="1426"/>
  <unicode hex="0044"/>
  <note>
D
</note>
  <anchor x="739" y="0" name="bottom"/>
  <anchor x="265" y="715" name="center"/>
  <anchor x="739" y="1435" name="top"/>
  <outline>
    <contour>
      <point x="172" y="-8" type="line"/>
      <point x="547" y="-8" type="line" smooth="yes"/>
      <point x="798" y="-8"/>
      <point x="992" y="45"/>
      <point x="1124" y="153" type="curve" smooth="yes"/>
      <point x="1269" y="268"/>
      <point x="1343" y="449"/>
      <point x="1343" y="704" type="curve" smooth="yes"/>
      <point x="1343" y="952"/>
      <point x="1273" y="1133"/>
      <point x="1134" y="1252" type="curve" smooth="yes"/>
      <point x="992" y="1376"/>
      <point x="773" y="1438"/>
      <point x="485" y="1438" type="curve" smooth="yes"/>
      <point x="172" y="1438" type="line"/>
    </contour>
    <contour>
      <point x="345" y="-3" type="line"/>
      <point x="345" y="1433" type="line"/>
      <point x="229" y="1420" type="line"/>
      <point x="508" y="1420" type="line" smooth="yes"/>
      <point x="930" y="1420"/>
      <point x="1142" y="1176"/>
      <point x="1142" y="709" type="curve" smooth="yes"/>
      <point x="1142" y="240"/>
      <point x="929" y="11"/>
      <point x="504" y="11" type="curve" smooth="yes"/>
      <point x="229" y="11" type="line"/>
    </contour>
  </outline>
</glyph>
<glyph name="G" format="2">
  <advance width="1577"/>
  <unicode hex="0047"/>
  <note>
G
</note>
  <anchor x="788" y="0" name="bottom"/>
  <anchor x="788" y="1435" name="top"/>
  <outline>
    <contour>
      <point x="813" y="-34" type="curve" smooth="yes"/>
      <point x="1204" y="-27"/>
      <point x="1496" y="267"/>
      <point x="1530" y="645" type="curve"/>
      <point x="1334" y="645" type="line"/>
      <point x="1308" y="276"/>
      <point x="1079" y="-8"/>
      <point x="812" y="-12" type="curve" smooth="yes"/>
      <point x="527" y="-16"/>
      <point x="278" y="300"/>
      <point x="274" y="707" type="curve" smooth="yes"/>
      <point x="271" y="1117"/>
      <point x="520" y="1441"/>
      <point x="805" y="1445" type="curve" smooth="yes"/>
      <point x="980" y="1448"/>
      <point x="1185" y="1331"/>
      <point x="1269" y="1114" type="curve"/>
      <point x="1408" y="1169" type="line"/>
      <point x="1294" y="1368"/>
      <point x="1042" y="1471"/>
      <point x="805" y="1467" type="curve" smooth="yes"/>
      <point x="383" y="1460"/>
      <point x="74" y="1119"/>
      <point x="78" y="700" type="curve" smooth="yes"/>
      <point x="82" y="284"/>
      <point x="393" y="-41"/>
    </contour>
    <contour>
      <point x="820" y="630" type="line"/>
      <point x="1404" y="630" type="line"/>
      <point x="1404" y="645" type="line"/>
      <point x="820" y="645" type="line"/>
    </contour>
  </outline>
</glyph>
<glyph name="L" format="2">
  <advance width="1066"/>
  <unicode hex="004C"/>
  <note>
L
</note>
  <anchor x="520" y="0" name="bottom"/>
  <anchor x="255" y="716" name="center"/>
  <anchor x="711" y="719" name="dot"/>
  <anchor x="991" y="10" name="ogonek"/>
  <anchor x="331" y="1443" name="top"/>
  <anchor x="9" y="1443" name="topleft"/>
  <anchor x="883" y="1443" name="topright"/>
  <outline>
    <contour>
      <point x="172" y="0" type="line"/>
      <point x="1039" y="0" type="line"/>
      <point x="1039" y="18" type="line"/>
      <point x="240" y="18" type="line"/>
      <point x="345" y="9" type="line"/>
      <point x="345" y="1438" type="line"/>
      <point x="172" y="1438" type="line"/>
    </contour>
  </outline>
</glyph>
<glyph name="P" format="2">
  <advance width="1125"/>
  <unicode hex="0050"/>
  <note>
P
</note>
  <anchor x="576" y="0" name="bottom"/>
  <anchor x="576" y="1435" name="top"/>
  <outline>
    <contour>
      <point x="171" y="0" type="line"/>
      <point x="354" y="0" type="line"/>
      <point x="354" y="610" type="line"/>
      <point x="237" y="600" type="line"/>
      <point x="583" y="600" type="line" smooth="yes"/>
      <point x="727" y="601"/>
      <point x="852" y="635"/>
      <point x="940" y="712" type="curve" smooth="yes"/>
      <point x="1021" y="783"/>
      <point x="1067" y="892"/>
      <point x="1066" y="1031" type="curve" smooth="yes"/>
      <point x="1065" y="1159"/>
      <point x="1020" y="1258"/>
      <point x="941" y="1325" type="curve" smooth="yes"/>
      <point x="854" y="1398"/>
      <point x="727" y="1438"/>
      <point x="568" y="1438" type="curve" smooth="yes"/>
      <point x="171" y="1438" type="line"/>
    </contour>
    <contour>
      <point x="354" y="609" type="line"/>
      <point x="354" y="1427" type="line"/>
      <point x="214" y="1421" type="line"/>
      <point x="545" y="1420" type="line" smooth="yes"/>
      <point x="742" y="1419"/>
      <point x="896" y="1258"/>
      <point x="898" y="1020" type="curve" smooth="yes"/>
      <point x="900" y="778"/>
      <point x="747" y="618"/>
      <point x="551" y="618" type="curve" smooth="yes"/>
      <point x="236" y="619" type="line"/>
    </contour>
  </outline>
</glyph>
<glyph name="R" format="2">
  <advance width="1203"/>
  <unicode hex="0052"/>
  <note>
R
</note>
  <anchor x="610" y="0" name="bottom"/>
  <anchor x="610" y="1435" name="top"/>
  <outline>
    <contour>
      <point x="172" y="0" type="line"/>
      <point x="355" y="0" type="line"/>
      <point x="355" y="632" type="line"/>
      <point x="260" y="625" type="line"/>
      <point x="549" y="625" type="line"/>
      <point x="620" y="627" type="line" smooth="yes"/>
      <point x="894" y="640"/>
      <point x="1070" y="769"/>
      <point x="1067" y="1032" type="curve" smooth="yes"/>
      <point x="1063" y="1333"/>
      <point x="826" y="1438"/>
      <point x="569" y="1438" type="curve" smooth="yes"/>
      <point x="172" y="1438" type="line"/>
    </contour>
    <contour>
      <point x="260" y="643" type="line"/>
      <point x="355" y="637" type="line"/>
      <point x="355" y="1429" type="line"/>
      <point x="260" y="1421" type="line"/>
      <point x="545" y="1420" type="line" smooth="yes"/>
      <point x="742" y="1419"/>
      <point x="896" y="1259"/>
      <point x="899" y="1021" type="curve" smooth="yes"/>
      <point x="901" y="779"/>
      <point x="747" y="643"/>
      <point x="551" y="643" type="curve" smooth="yes"/>
    </contour>
    <contour>
      <point x="537" y="627" type="line"/>
      <point x="616" y="615"/>
      <point x="680" y="628"/>
      <point x="769" y="525" type="curve" smooth="yes"/>
      <point x="822" y="461"/>
      <point x="855" y="401"/>
      <point x="903" y="248" type="curve" smooth="yes"/>
      <point x="922" y="160"/>
      <point x="951" y="73"/>
      <point x="976" y="0" type="curve"/>
      <point x="1130" y="0" type="line"/>
      <point x="1108" y="72"/>
      <point x="1068" y="187"/>
      <point x="1042" y="284" type="curve" smooth="yes"/>
      <point x="1010" y="404"/>
      <point x="955" y="484"/>
      <point x="902" y="537" type="curve" smooth="yes"/>
      <point x="824" y="609"/>
      <point x="749" y="642"/>
      <point x="640" y="642" type="curve"/>
    </contour>
  </outline>
</glyph>
<glyph name="U" format="2">
  <advance width="1453"/>
  <unicode hex="0055"/>
  <note>
U
</note>
  <anchor x="746" y="0" name="bottom"/>
  <anchor x="912" y="0" name="ogonek"/>
  <anchor x="746" y="1435" name="top"/>
  <anchor x="1667" y="1435" name="topright"/>
  <outline>
    <contour>
      <point x="746" y="-33" type="curve" smooth="yes"/>
      <point x="1107" y="-33"/>
      <point x="1314" y="205"/>
      <point x="1314" y="560" type="curve" smooth="yes"/>
      <point x="1314" y="1438" type="line"/>
      <point x="1271" y="1438" type="line"/>
      <point x="1271" y="541" type="line" smooth="yes"/>
      <point x="1271" y="220"/>
      <point x="1020" y="14"/>
      <point x="746" y="14" type="curve" smooth="yes"/>
      <point x="468" y="14"/>
      <point x="316" y="225"/>
      <point x="316" y="556" type="curve" smooth="yes"/>
      <point x="316" y="1438" type="line"/>
      <point x="138" y="1438" type="line"/>
      <point x="138" y="556" type="line" smooth="yes"/>
      <point x="138" y="180"/>
      <point x="399" y="-33"/>
    </contour>
  </outline>
</glyph>
<glyph name="Z" format="2">
  <advance width="1205"/>
  <unicode hex="005A"/>
  <note>
Z
</note>
  <anchor x="604" y="0" name="bottom"/>
  <anchor x="604" y="715" name="center"/>
  <anchor x="604" y="1435" name="top"/>
  <outline>
    <contour>
      <point x="40" y="-8" type="line"/>
      <point x="1160" y="-8" type="line"/>
      <point x="1160" y="19" type="line"/>
      <point x="80" y="19" type="line"/>
      <point x="213" y="6" type="line"/>
      <point x="1132" y="1438" type="line"/>
      <point x="102" y="1438" type="line"/>
      <point x="102" y="1412" type="line"/>
      <point x="1098" y="1412" type="line"/>
      <point x="960" y="1420" type="line"/>
    </contour>
  </outline>
</glyph>
<glyph name="underscore" format="2">
  <advance width="1436"/>
  <unicode hex="005F"/>
  <note>
underscore
</note>
  <outline>
    <contour>
      <point x="77" y="-389" type="line"/>
      <point x="1359" y="-389" type="line"/>
      <point x="1359" y="-319" type="line"/>
      <point x="77" y="-319" type="line"/>
    </contour>
  </outline>
</glyph>
<glyph name="d" format="2">
  <advance width="1173"/>
  <unicode hex="0064"/>
  <note>
d
</note>
  <anchor x="515" y="0" name="bottom"/>
  <anchor x="902" y="1275" name="center"/>
  <anchor x="575" y="1519" name="top"/>
  <anchor x="1174" y="1517" name="topright"/>
  <outline>
    <contour>
      <point x="508" y="-30" type="curve" smooth="yes"/>
      <point x="703" y="-30"/>
      <point x="825" y="68"/>
      <point x="887" y="236" type="curve"/>
      <point x="833" y="264" type="line"/>
      <point x="833" y="0" type="line"/>
      <point x="1033" y="0" type="line"/>
      <point x="1033" y="1514" type="line"/>
      <point x="831" y="1514" type="line"/>
      <point x="831" y="644" type="line"/>
      <point x="880" y="677" type="line"/>
      <point x="820" y="847"/>
      <point x="714" y="949"/>
      <point x="515" y="949" type="curve" smooth="yes"/>
      <point x="242" y="949"/>
      <point x="51" y="757"/>
      <point x="51" y="457" type="curve" smooth="yes"/>
      <point x="51" y="168"/>
      <point x="231" y="-30"/>
    </contour>
    <contour>
      <point x="533" y="13" type="curve" smooth="yes"/>
      <point x="370" y="13"/>
      <point x="257" y="185"/>
      <point x="257" y="459" type="curve" smooth="yes"/>
      <point x="257" y="727"/>
      <point x="366" y="907"/>
      <point x="531" y="907" type="curve" smooth="yes"/>
      <point x="698" y="907"/>
      <point x="834" y="713"/>
      <point x="834" y="455" type="curve" smooth="yes"/>
      <point x="834" y="205"/>
      <point x="706" y="13"/>
    </contour>
  </outline>
</glyph>
<glyph name="p" format="2">
  <advance width="1174"/>
  <unicode hex="0070"/>
  <note>
p
</note>
  <anchor x="601" y="0" name="bottom"/>
  <anchor x="601" y="917" name="top"/>
  <outline>
    <contour>
      <point x="141" y="-563" type="line"/>
      <point x="343" y="-563" type="line"/>
      <point x="343" y="273" type="line"/>
      <point x="295" y="240" type="line"/>
      <point x="354" y="70"/>
      <point x="462" y="-33"/>
      <point x="660" y="-33" type="curve" smooth="yes"/>
      <point x="934" y="-33"/>
      <point x="1124" y="165"/>
      <point x="1124" y="465" type="curve" smooth="yes"/>
      <point x="1124" y="755"/>
      <point x="945" y="957"/>
      <point x="667" y="957" type="curve" smooth="yes"/>
      <point x="473" y="957"/>
      <point x="349" y="859"/>
      <point x="288" y="691" type="curve"/>
      <point x="341" y="653" type="line"/>
      <point x="341" y="921" type="line"/>
      <point x="141" y="921" type="line"/>
    </contour>
    <contour>
      <point x="644" y="10" type="curve" smooth="yes"/>
      <point x="477" y="10"/>
      <point x="340" y="204"/>
      <point x="340" y="462" type="curve" smooth="yes"/>
      <point x="340" y="712"/>
      <point x="468" y="914"/>
      <point x="641" y="914" type="curve" smooth="yes"/>
      <point x="804" y="914"/>
      <point x="917" y="737"/>
      <point x="917" y="463" type="curve" smooth="yes"/>
      <point x="917" y="195"/>
      <point x="809" y="10"/>
    </contour>
  </outline>
</glyph>
<glyph name="asciitilde" format="2">
  <advance width="1194"/>
  <unicode hex="007E"/>
  <note>
asciitilde
</note>
  <outline>
    <contour>
      <point x="784" y="600" type="curve" smooth="yes"/>
      <point x="904" y="600"/>
      <point x="1017" y="665"/>
      <point x="1086" y="738" type="curve"/>
      <point x="1032" y="815" type="line"/>
      <point x="931" y="737"/>
      <point x="844" y="703"/>
      <point x="781" y="703" type="curve" smooth="yes"/>
      <point x="713" y="703"/>
      <point x="667" y="740"/>
      <point x="624" y="766" type="curve" smooth="yes"/>
      <point x="552" y="810"/>
      <point x="480" y="840"/>
      <point x="406" y="840" type="curve" smooth="yes"/>
      <point x="301" y="840"/>
      <point x="184" y="779"/>
      <point x="107" y="690" type="curve"/>
      <point x="163" y="614" type="line"/>
      <point x="264" y="697"/>
      <point x="342" y="735"/>
      <point x="407" y="735" type="curve" smooth="yes"/>
      <point x="474" y="735"/>
      <point x="542" y="689"/>
      <point x="584" y="664" type="curve" smooth="yes"/>
      <point x="671" y="613"/>
      <point x="736" y="600"/>
    </contour>
  </outline>
</glyph>
<glyph name=".notdef" format="2">
  <advance width="1375"/>
  <unicode hex="007F"/>
  <note>
.notdef
</note>
  <outline>
    <contour>
      <point x="155" y="-362" type="line"/>
      <point x="1220" y="-362" type="line"/>
      <point x="1220" y="1418" type="line"/>
      <point x="155" y="1418" type="line"/>
    </contour>
    <contour>
      <point x="332" y="-235" type="line"/>
      <point x="332" y="1291" type="line"/>
      <point x="1043" y="1291" type="line"/>
      <point x="1043" y="-235" type="line"/>
    </contour>
  </outline>
</glyph>
<glyph name="sterling" format="2">
  <advance width="1277"/>
  <unicode hex="00A3"/>
  <note>
sterling
</note>
  <outline>
    <contour>
      <point x="270" y="42" type="curve"/>
      <point x="489" y="46"/>
      <point x="817" y="186"/>
      <point x="817" y="457" type="curve" smooth="yes"/>
      <point x="817" y="610"/>
      <point x="743" y="735"/>
      <point x="566" y="840" type="curve" smooth="yes"/>
      <point x="443" y="913"/>
      <point x="339" y="995"/>
      <point x="339" y="1149" type="curve" smooth="yes"/>
      <point x="339" y="1308"/>
      <point x="456" y="1447"/>
      <point x="620" y="1447" type="curve" smooth="yes"/>
      <point x="787" y="1447"/>
      <point x="962" y="1334"/>
      <point x="993" y="1180" type="curve"/>
      <point x="1083" y="1189" type="line"/>
      <point x="1049" y="1352"/>
      <point x="875" y="1472"/>
      <point x="633" y="1472" type="curve" smooth="yes"/>
      <point x="354" y="1472"/>
      <point x="173" y="1310"/>
      <point x="173" y="1096" type="curve" smooth="yes"/>
      <point x="173" y="924"/>
      <point x="251" y="810"/>
      <point x="403" y="717" type="curve" smooth="yes"/>
      <point x="523" y="643"/>
      <point x="641" y="543"/>
      <point x="641" y="403" type="curve" smooth="yes"/>
      <point x="641" y="246"/>
      <point x="443" y="46"/>
      <point x="225" y="47" type="curve"/>
      <point x="250" y="44"/>
      <point x="241" y="42"/>
    </contour>
    <contour>
      <point x="137" y="0" type="line"/>
      <point x="1185" y="0" type="line"/>
      <point x="1185" y="49" type="line"/>
      <point x="137" y="49" type="line"/>
    </contour>
    <contour>
      <point x="144" y="646" type="line"/>
      <point x="1060" y="646" type="line"/>
      <point x="1060" y="686" type="line"/>
      <point x="144" y="686" type="line"/>
    </contour>
  </outline>
</glyph>
<glyph name="registered" format="2">
  <advance width="1720"/>
  <unicode hex="00AE"/>
  <note>
registered
</note>
  <outline>
    <contour>
      <point x="859" y="-18" type="curve" smooth="yes"/>
      <point x="1055" y="-18"/>
      <point x="1252" y="63"/>
      <point x="1392" y="199" type="curve" smooth="yes"/>
      <point x="1538" y="341"/>
      <point x="1609" y="510"/>
      <point x="1609" y="708" type="curve" smooth="yes"/>
      <point x="1609" y="906"/>
      <point x="1536" y="1078"/>
      <point x="1394" y="1221" type="curve" smooth="yes"/>
      <point x="1259" y="1356"/>
      <point x="1063" y="1434"/>
      <point x="859" y="1434" type="curve" smooth="yes"/>
      <point x="661" y="1434"/>
      <point x="468" y="1360"/>
      <point x="335" y="1225" type="curve" smooth="yes"/>
      <point x="185" y="1073"/>
      <point x="110" y="902"/>
      <point x="110" y="708" type="curve" smooth="yes"/>
      <point x="110" y="514"/>
      <point x="184" y="344"/>
      <point x="331" y="198" type="curve" smooth="yes"/>
      <point x="468" y="60"/>
      <point x="662" y="-18"/>
    </contour>
    <contour>
      <point x="858" y="31" type="curve" smooth="yes"/>
      <point x="686" y="31"/>
      <point x="533" y="98"/>
      <point x="401" y="232" type="curve" smooth="yes"/>
      <point x="281" y="354"/>
      <point x="209" y="532"/>
      <point x="209" y="708" type="curve" smooth="yes"/>
      <point x="209" y="888"/>
      <point x="282" y="1068"/>
      <point x="404" y="1192" type="curve" smooth="yes"/>
      <point x="534" y="1324"/>
      <point x="679" y="1387"/>
      <point x="859" y="1387" type="curve" smooth="yes"/>
      <point x="1037" y="1387"/>
      <point x="1189" y="1323"/>
      <point x="1323" y="1188" type="curve" smooth="yes"/>
      <point x="1441" y="1070"/>
      <point x="1513" y="888"/>
      <point x="1513" y="706" type="curve" smooth="yes"/>
      <point x="1513" y="523"/>
      <point x="1441" y="348"/>
      <point x="1323" y="233" type="curve" smooth="yes"/>
      <point x="1189" y="101"/>
      <point x="1036" y="31"/>
    </contour>
    <contour>
      <point x="584" y="326" type="line"/>
      <point x="710" y="326" type="line"/>
      <point x="710" y="670" type="line"/>
      <point x="878" y="670" type="line"/>
      <point x="1076" y="326" type="line"/>
      <point x="1186" y="326" type="line"/>
      <point x="977" y="677" type="line"/>
      <point x="1109" y="706"/>
      <point x="1175" y="778"/>
      <point x="1175" y="894" type="curve" smooth="yes"/>
      <point x="1175" y="1042"/>
      <point x="1081" y="1114"/>
      <point x="850" y="1114" type="curve" smooth="yes"/>
      <point x="584" y="1114" type="line"/>
    </contour>
    <contour>
      <point x="710" y="726" type="line"/>
      <point x="710" y="1063" type="line"/>
      <point x="852" y="1063" type="line" smooth="yes"/>
      <point x="994" y="1063"/>
      <point x="1058" y="1010"/>
      <point x="1058" y="894" type="curve" smooth="yes"/>
      <point x="1058" y="779"/>
      <point x="995" y="726"/>
      <point x="856" y="726" type="curve" smooth="yes"/>
    </contour>
  </outline>
</glyph>
<glyph name="ordmasculine" format="2">
  <advance width="869"/>
  <unicode hex="00BA"/>
  <note>
ordmasculine
</note>
  <outline>
    <contour>
      <point x="434" y="843" type="curve" smooth="yes"/>
      <point x="610" y="843"/>
      <point x="760" y="959"/>
      <point x="760" y="1147" type="curve" smooth="yes"/>
      <point x="760" y="1335"/>
      <point x="612" y="1455"/>
      <point x="434" y="1455" type="curve" smooth="yes"/>
      <point x="258" y="1455"/>
      <point x="110" y="1336"/>
      <point x="110" y="1147" type="curve" smooth="yes"/>
      <point x="110" y="959"/>
      <point x="258" y="843"/>
    </contour>
    <contour>
      <point x="434" y="875" type="curve" smooth="yes"/>
      <point x="351" y="875"/>
      <point x="264" y="1000"/>
      <point x="264" y="1147" type="curve" smooth="yes"/>
      <point x="264" y="1294"/>
      <point x="352" y="1422"/>
      <point x="434" y="1422" type="curve" smooth="yes"/>
      <point x="516" y="1422"/>
      <point x="605" y="1293"/>
      <point x="605" y="1147" type="curve" smooth="yes"/>
      <point x="605" y="1000"/>
      <point x="517" y="875"/>
    </contour>
    <contour>
      <point x="121" y="697" type="line"/>
      <point x="747" y="697" type="line"/>
      <point x="747" y="762" type="line"/>
      <point x="121" y="762" type="line"/>
    </contour>
  </outline>
</glyph>
<glyph name="idotless" format="2">
  <advance width="446"/>
  <unicode hex="0131"/>
  <note>
dotlessi
</note>
  <anchor x="228" y="0" name="bottom"/>
  <anchor x="244" y="0" name="ogonek"/>
  <anchor x="228" y="921" name="top"/>
  <outline>
    <contour>
      <point x="126" y="0" type="line"/>
      <point x="320" y="0" type="line"/>
      <point x="320" y="921" type="line"/>
      <point x="126" y="921" type="line"/>
    </contour>
  </outline>
</glyph>
<glyph name="kgreenlandic" format="2">
  <advance width="967"/>
  <unicode hex="0138"/>
  <anchor x="485" y="0" name="bottom"/>
  <anchor x="485" y="917" name="top"/>
  <outline>
    <contour>
      <point x="127" y="0" type="line"/>
      <point x="307" y="0" type="line"/>
      <point x="307" y="921" type="line"/>
      <point x="127" y="920" type="line"/>
    </contour>
    <contour>
      <point x="803" y="0" type="line"/>
      <point x="966" y="0" type="line"/>
      <point x="476" y="586" type="line"/>
      <point x="382" y="499" type="line"/>
    </contour>
    <contour>
      <point x="239" y="324" type="line"/>
      <point x="854" y="921" type="line"/>
      <point x="813" y="921" type="line"/>
      <point x="273" y="405" type="line"/>
    </contour>
  </outline>
</glyph>
<glyph name="OE" format="2">
  <advance width="2178"/>
  <unicode hex="0152"/>
  <note>
OE
</note>
  <anchor x="1100" y="0" name="bottom"/>
  <anchor x="1100" y="1435" name="top"/>
  <outline>
    <contour>
      <point x="767" y="-34" type="curve" smooth="yes"/>
      <point x="1162" y="-34"/>
      <point x="1451" y="297"/>
      <point x="1451" y="714" type="curve" smooth="yes"/>
      <point x="1451" y="1134"/>
      <point x="1156" y="1468"/>
      <point x="767" y="1468" type="curve" smooth="yes"/>
      <point x="376" y="1468"/>
      <point x="78" y="1133"/>
      <point x="78" y="714" type="curve" smooth="yes"/>
      <point x="78" y="297"/>
      <point x="372" y="-34"/>
    </contour>
    <contour>
      <point x="767" y="4" type="curve" smooth="yes"/>
      <point x="502" y="4"/>
      <point x="292" y="309"/>
      <point x="292" y="715" type="curve" smooth="yes"/>
      <point x="292" y="1124"/>
      <point x="506" y="1431"/>
      <point x="767" y="1431" type="curve" smooth="yes"/>
      <point x="1028" y="1431"/>
      <point x="1242" y="1124"/>
      <point x="1242" y="715" type="curve" smooth="yes"/>
      <point x="1242" y="310"/>
      <point x="1032" y="4"/>
    </contour>
    <contour>
      <point x="1248" y="0" type="line"/>
      <point x="2110" y="0" type="line"/>
      <point x="2110" y="39" type="line"/>
      <point x="1246" y="39" type="line"/>
      <point x="1459" y="11" type="line"/>
      <point x="1459" y="743" type="line"/>
      <point x="1304" y="709" type="line"/>
      <point x="2110" y="709" type="line"/>
      <point x="2110" y="747" type="line"/>
      <point x="1296" y="747" type="line"/>
      <point x="1459" y="720" type="line"/>
      <point x="1459" y="1421" type="line"/>
      <point x="1292" y="1400" type="line"/>
      <point x="2110" y="1400" type="line"/>
      <point x="2110" y="1438" type="line"/>
      <point x="1248" y="1438" type="line"/>
    </contour>
  </outline>
</glyph>
<glyph name="florin" format="2">
  <advance width="1240"/>
  <unicode hex="0192"/>
  <note>
florin
</note>
  <outline>
    <contour>
      <point x="514" y="407" type="line"/>
      <point x="676" y="407" type="line"/>
      <point x="798" y="911" type="line"/>
      <point x="803" y="1389"/>
      <point x="857" y="1532"/>
      <point x="1015" y="1532" type="curve" smooth="yes"/>
      <point x="1102" y="1532"/>
      <point x="1104" y="1452"/>
      <point x="1098" y="1429" type="curve"/>
      <point x="1164" y="1459" type="line"/>
      <point x="1160" y="1510"/>
      <point x="1114" y="1555"/>
      <point x="1015" y="1555" type="curve"/>
      <point x="822" y="1555"/>
      <point x="758" y="1420"/>
      <point x="696" y="1162" type="curve"/>
    </contour>
    <contour>
      <point x="226" y="-493" type="curve"/>
      <point x="418" y="-493"/>
      <point x="482" y="-357"/>
      <point x="554" y="-99" type="curve"/>
      <point x="736" y="656" type="line"/>
      <point x="574" y="656" type="line"/>
      <point x="432" y="62" type="line"/>
      <point x="373" y="-257"/>
      <point x="372" y="-470"/>
      <point x="226" y="-470" type="curve" smooth="yes"/>
      <point x="138" y="-470"/>
      <point x="136" y="-389"/>
      <point x="142" y="-366" type="curve"/>
      <point x="76" y="-397" type="line"/>
      <point x="81" y="-448"/>
      <point x="127" y="-493"/>
    </contour>
    <contour>
      <point x="430" y="880" type="line"/>
      <point x="994" y="880" type="line"/>
      <point x="1004" y="920" type="line"/>
      <point x="440" y="920" type="line"/>
    </contour>
  </outline>
</glyph>
<glyph name="jdotless" format="2">
  <advance width="465"/>
  <unicode hex="0237"/>
  <anchor x="227" y="-526" name="bottom"/>
  <anchor x="227" y="922" name="top"/>
  <outline>
    <contour>
      <point x="56" y="-566" type="curve" smooth="yes"/>
      <point x="258" y="-566"/>
      <point x="326" y="-452"/>
      <point x="326" y="-39" type="curve" smooth="yes"/>
      <point x="326" y="921" type="line"/>
      <point x="139" y="921" type="line"/>
      <point x="139" y="12" type="line" smooth="yes"/>
      <point x="139" y="-338"/>
      <point x="161" y="-534"/>
      <point x="54" y="-545" type="curve" smooth="yes"/>
      <point x="-10" y="-552"/>
      <point x="-79" y="-484"/>
      <point x="-79" y="-400" type="curve" smooth="yes"/>
      <point x="-79" y="-378"/>
      <point x="-75" y="-333"/>
      <point x="-66" y="-308" type="curve"/>
      <point x="-164" y="-325" type="line"/>
      <point x="-175" y="-361"/>
      <point x="-177" y="-393"/>
      <point x="-177" y="-407" type="curve" smooth="yes"/>
      <point x="-177" y="-509"/>
      <point x="-102" y="-566"/>
    </contour>
  </outline>
</glyph>
<glyph name="tildecomb" format="2">
  <unicode hex="0303"/>
  <note>
tilde
</note>
  <anchor x="373" y="917" name="_top"/>
  <anchor x="378" y="1347" name="top"/>
  <outline>
    <contour>
      <point x="493" y="1119" type="curve" smooth="yes"/>
      <point x="587" y="1119"/>
      <point x="642" y="1185"/>
      <point x="680" y="1296" type="curve"/>
      <point x="670" y="1314" type="line"/>
      <point x="609" y="1233"/>
      <point x="562" y="1204"/>
      <point x="504" y="1204" type="curve" smooth="yes"/>
      <point x="413" y="1204"/>
      <point x="392" y="1342"/>
      <point x="261" y="1342" type="curve" smooth="yes"/>
      <point x="168" y="1342"/>
      <point x="112" y="1275"/>
      <point x="75" y="1163" type="curve"/>
      <point x="85" y="1145" type="line"/>
      <point x="149" y="1226"/>
      <point x="190" y="1255"/>
      <point x="248" y="1255" type="curve" smooth="yes"/>
      <point x="346" y="1255"/>
      <point x="365" y="1119"/>
    </contour>
  </outline>
</glyph>
<glyph name="brevecomb" format="2">
  <unicode hex="0306"/>
  <note>
breve
</note>
  <anchor x="345" y="922" name="_top"/>
  <anchor x="345" y="1356" name="top"/>
  <outline>
    <contour>
      <point x="345" y="1087" type="curve" smooth="yes"/>
      <point x="498" y="1087"/>
      <point x="591" y="1172"/>
      <point x="624" y="1361" type="curve"/>
      <point x="576" y="1361" type="line"/>
      <point x="528" y="1230"/>
      <point x="453" y="1173"/>
      <point x="345" y="1173" type="curve" smooth="yes"/>
      <point x="239" y="1173"/>
      <point x="159" y="1228"/>
      <point x="109" y="1361" type="curve"/>
      <point x="66" y="1361" type="line"/>
      <point x="97" y="1175"/>
      <point x="189" y="1087"/>
    </contour>
  </outline>
</glyph>
<glyph name="dieresiscomb" format="2">
  <unicode hex="0308"/>
  <note>
dieresis
</note>
  <anchor x="312.5" y="914" name="_top"/>
  <anchor x="312.5" y="1297" name="top"/>
  <outline>
    <contour>
      <point x="477" y="1099" type="curve" smooth="yes"/>
      <point x="532" y="1099"/>
      <point x="577" y="1142"/>
      <point x="577" y="1198" type="curve" smooth="yes"/>
      <point x="577" y="1254"/>
      <point x="532" y="1297"/>
      <point x="477" y="1297" type="curve" smooth="yes"/>
      <point x="423" y="1297"/>
      <point x="378" y="1254"/>
      <point x="378" y="1198" type="curve" smooth="yes"/>
      <point x="378" y="1142"/>
      <point x="422" y="1099"/>
    </contour>
    <contour>
      <point x="147" y="1099" type="curve" smooth="yes"/>
      <point x="202" y="1099"/>
      <point x="247" y="1142"/>
      <point x="247" y="1198" type="curve" smooth="yes"/>
      <point x="247" y="1254"/>
      <point x="202" y="1297"/>
      <point x="147" y="1297" type="curve" smooth="yes"/>
      <point x="93" y="1297"/>
      <point x="48" y="1254"/>
      <point x="48" y="1198" type="curve" smooth="yes"/>
      <point x="48" y="1142"/>
      <point x="92" y="1099"/>
    </contour>
  </outline>
</glyph>
<glyph name="ogonekcomb" format="2">
  <unicode hex="0328"/>
  <anchor x="324" y="0" name="_ogonek"/>
  <outline>
    <contour>
      <point x="246" y="-352" type="curve" smooth="yes"/>
      <point x="291" y="-352"/>
      <point x="358" y="-335"/>
      <point x="434" y="-294" type="curve"/>
      <point x="434" y="-271" type="line"/>
      <point x="337" y="-316"/>
      <point x="304" y="-313"/>
      <point x="276" y="-313" type="curve" smooth="yes"/>
      <point x="218" y="-313"/>
      <point x="171" y="-284"/>
      <point x="171" y="-205" type="curve" smooth="yes"/>
      <point x="171" y="-121"/>
      <point x="221" y="-48"/>
      <point x="369" y="0" type="curve"/>
      <point x="312" y="0" type="line" smooth="yes"/>
      <point x="254" y="0"/>
      <point x="80" y="-68"/>
      <point x="80" y="-200" type="curve" smooth="yes"/>
      <point x="80" y="-269"/>
      <point x="134" y="-352"/>
    </contour>
  </outline>
</glyph>
<glyph name="strokelongcomb" format="2">
  <unicode hex="0336"/>
  <anchor x="397" y="752" name="_center"/>
  <outline>
    <contour>
      <point x="56" y="727" type="line"/>
      <point x="738" y="727" type="line"/>
      <point x="738" y="775" type="line"/>
      <point x="56" y="775" type="line"/>
    </contour>
  </outline>
</glyph>
<glyph name="slashshortcomb" format="2">
  <unicode hex="0337"/>
  <anchor x="326" y="727.5" name="_center"/>
  <outline>
    <contour>
      <point x="38" y="535" type="line"/>
      <point x="631" y="893" type="line"/>
      <point x="614" y="920" type="line"/>
      <point x="21" y="562" type="line"/>
    </contour>
  </outline>
</glyph>
<glyph name="dagger" format="2">
  <advance width="984"/>
  <unicode hex="2020"/>
  <note>
dagger
</note>
  <outline>
    <contour>
      <point x="492" y="-300" type="curve" smooth="yes"/>
      <point x="530" y="-300"/>
      <point x="559" y="-255"/>
      <point x="559" y="-193" type="curve" smooth="yes"/>
      <point x="559" y="676" type="line" smooth="yes"/>
      <point x="559" y="824"/>
      <point x="531" y="1013"/>
      <point x="512" y="994" type="curve" smooth="yes"/>
      <point x="493" y="975"/>
      <point x="640" y="946"/>
      <point x="815" y="946" type="curve" smooth="yes"/>
      <point x="876" y="946"/>
      <point x="922" y="961"/>
      <point x="922" y="981" type="curve" smooth="yes"/>
      <point x="922" y="1001"/>
      <point x="876" y="1016"/>
      <point x="815" y="1016" type="curve" smooth="yes"/>
      <point x="624" y="1016"/>
      <point x="488" y="993"/>
      <point x="512" y="969" type="curve" smooth="yes"/>
      <point x="536" y="946"/>
      <point x="559" y="1091"/>
      <point x="559" y="1245" type="curve" smooth="yes"/>
      <point x="559" y="1315"/>
      <point x="532" y="1389"/>
      <point x="492" y="1389" type="curve" smooth="yes"/>
      <point x="452" y="1389"/>
      <point x="424" y="1315"/>
      <point x="424" y="1245" type="curve" smooth="yes"/>
      <point x="424" y="1091"/>
      <point x="448" y="946"/>
      <point x="471" y="969" type="curve" smooth="yes"/>
      <point x="495" y="993"/>
      <point x="360" y="1016"/>
      <point x="169" y="1016" type="curve" smooth="yes"/>
      <point x="107" y="1016"/>
      <point x="62" y="1001"/>
      <point x="62" y="981" type="curve" smooth="yes"/>
      <point x="62" y="961"/>
      <point x="107" y="946"/>
      <point x="169" y="946" type="curve" smooth="yes"/>
      <point x="344" y="946"/>
      <point x="491" y="975"/>
      <point x="471" y="994" type="curve" smooth="yes"/>
      <point x="453" y="1013"/>
      <point x="424" y="824"/>
      <point x="424" y="676" type="curve" smooth="yes"/>
      <point x="424" y="-193" type="line" smooth="yes"/>
      <point x="424" y="-255"/>
      <point x="453" y="-300"/>
    </contour>
  </outline>
</glyph>
<glyph name="liraTurkish" format="2">
  <advance width="1097"/>
  <unicode hex="20BA"/>
  <outline>
    <contour>
      <point x="320" y="0" type="line"/>
      <point x="769" y="0"/>
      <point x="938" y="1"/>
      <point x="1001" y="430" type="curve"/>
      <point x="942" y="403" type="line"/>
      <point x="922" y="24"/>
      <point x="733" y="15"/>
      <point x="358" y="14" type="curve"/>
      <point x="490" y="9" type="line"/>
      <point x="490" y="1438" type="line"/>
      <point x="320" y="1438" type="line"/>
    </contour>
    <contour>
      <point x="113" y="474" type="line"/>
      <point x="707" y="832" type="line"/>
      <point x="688" y="863" type="line"/>
      <point x="95" y="505" type="line"/>
    </contour>
    <contour>
      <point x="113" y="674" type="line"/>
      <point x="707" y="1032" type="line"/>
      <point x="688" y="1063" type="line"/>
      <point x="95" y="705" type="line"/>
    </contour>
  </outline>
</glyph>
<glyph name="manat" format="2">
  <advance width="1284"/>
  <unicode hex="20BC"/>
  <outline>
    <contour>
      <point x="154" y="0" type="line"/>
      <point x="311" y="0" type="line"/>
      <point x="311" y="455" type="line"/>
      <point x="311" y="757"/>
      <point x="449" y="930"/>
      <point x="642" y="931" type="curve" smooth="yes"/>
      <point x="839" y="930"/>
      <point x="973" y="748"/>
      <point x="973" y="455" type="curve"/>
      <point x="973" y="0" type="line"/>
      <point x="1130" y="0" type="line"/>
      <point x="1130" y="453" type="line"/>
      <point x="1130" y="750"/>
      <point x="945" y="951"/>
      <point x="642" y="954" type="curve"/>
      <point x="339" y="951"/>
      <point x="154" y="750"/>
      <point x="154" y="453" type="curve"/>
    </contour>
    <contour>
      <point x="602" y="0" type="line"/>
      <point x="682" y="0" type="line"/>
      <point x="682" y="1274" type="line"/>
      <point x="602" y="1274" type="line"/>
    </contour>
  </outline>
</glyph>
<glyph name="trademark" format="2">
  <advance width="1399"/>
  <unicode hex="2122"/>
  <note>
trademark
</note>
  <outline>
    <contour>
      <point x="652" y="900" type="line"/>
      <point x="732" y="900" type="line"/>
      <point x="732" y="1348" type="line"/>
      <point x="908" y="900" type="line"/>
      <point x="960" y="900" type="line"/>
      <point x="1128" y="1348" type="line"/>
      <point x="1128" y="900" type="line"/>
      <point x="1208" y="900" type="line"/>
      <point x="1208" y="1422" type="line"/>
      <point x="1080" y="1422" type="line"/>
      <point x="934" y="1026" type="line"/>
      <point x="778" y="1422" type="line"/>
      <point x="652" y="1422" type="line"/>
    </contour>
    <contour>
      <point x="270" y="900" type="line"/>
      <point x="362" y="900" type="line"/>
      <point x="362" y="1356" type="line"/>
      <point x="530" y="1356" type="line"/>
      <point x="530" y="1422" type="line"/>
      <point x="100" y="1422" type="line"/>
      <point x="100" y="1356" type="line"/>
      <point x="270" y="1356" type="line"/>
    </contour>
  </outline>
</glyph>
<glyph name="fraction" format="2">
  <unicode hex="2215"/>
  <note>
fraction
</note>
  <outline>
    <contour>
      <point x="-505" y="-51" type="line"/>
      <point x="-429" y="-51" type="line"/>
      <point x="505" y="1461" type="line"/>
      <point x="429" y="1461" type="line"/>
    </contour>
  </outline>
</glyph>
<glyph name="notequal" format="2">
  <advance width="993"/>
  <unicode hex="2260"/>
  <note>
notequal
</note>
  <outline>
    <contour>
      <point x="672" y="1148" type="line"/>
      <point x="315" y="169" type="line"/>
      <point x="450" y="169" type="line"/>
      <point x="807" y="1148" type="line"/>
    </contour>
    <component base="equal"/>
  </outline>
</glyph>
<glyph name="apple" format="2">
  <advance width="1430"/>
  <unicode hex="F000"/>
  <note>
apple
</note>
  <outline>
    <contour>
      <point x="502" y="-34" type="curve" smooth="yes"/>
      <point x="515" y="-34"/>
      <point x="571" y="-15"/>
      <point x="601" y="-3" type="curve" smooth="yes"/>
      <point x="655" y="19"/>
      <point x="713" y="30"/>
      <point x="754" y="30" type="curve" smooth="yes"/>
      <point x="797" y="30"/>
      <point x="846" y="19"/>
      <point x="899" y="-3" type="curve" smooth="yes"/>
      <point x="959" y="-28"/>
      <point x="982" y="-34"/>
      <point x="1002" y="-34" type="curve" smooth="yes"/>
      <point x="1063" y="-34"/>
      <point x="1073" y="-24"/>
      <point x="1154" y="60" type="curve" smooth="yes"/>
      <point x="1191" y="99"/>
      <point x="1260" y="213"/>
      <point x="1346" y="404" type="curve"/>
      <point x="1188" y="479"/>
      <point x="1108" y="578"/>
      <point x="1108" y="724" type="curve" smooth="yes"/>
      <point x="1108" y="858"/>
      <point x="1173" y="941"/>
      <point x="1323" y="1040" type="curve"/>
      <point x="1212" y="1170"/>
      <point x="1148" y="1203"/>
      <point x="1020" y="1203" type="curve" smooth="yes"/>
      <point x="990" y="1203"/>
      <point x="962" y="1196"/>
      <point x="916" y="1177" type="curve" smooth="yes"/>
      <point x="852" y="1151"/>
      <point x="799" y="1135"/>
      <point x="752" y="1135" type="curve" smooth="yes"/>
      <point x="706" y="1135"/>
      <point x="645" y="1150"/>
      <point x="586" y="1176" type="curve" smooth="yes"/>
      <point x="537" y="1197"/>
      <point x="517" y="1201"/>
      <point x="480" y="1201" type="curve" smooth="yes"/>
      <point x="263" y="1201"/>
      <point x="109" y="1002"/>
      <point x="109" y="720" type="curve" smooth="yes"/>
      <point x="109" y="511"/>
      <point x="200" y="268"/>
      <point x="321" y="113" type="curve" smooth="yes"/>
      <point x="401" y="11"/>
      <point x="451" y="-34"/>
    </contour>
    <contour>
      <point x="788" y="1191" type="curve" smooth="yes"/>
      <point x="764" y="1191" type="line"/>
      <point x="772" y="1190" type="line" smooth="yes"/>
      <point x="870" y="1190"/>
      <point x="1006" y="1364"/>
      <point x="1006" y="1519" type="curve" smooth="yes"/>
      <point x="1006" y="1541"/>
      <point x="1005" y="1552"/>
      <point x="1004" y="1562" type="curve"/>
      <point x="905" y="1494"/>
      <point x="813" y="1366"/>
      <point x="813" y="1226" type="curve" smooth="yes"/>
      <point x="813" y="1204"/>
      <point x="815" y="1187"/>
      <point x="815" y="1192" type="curve"/>
      <point x="785" y="1191"/>
      <point x="786" y="1191"/>
    </contour>
  </outline>
</glyph>
<glyph name="currency_horz_stroke_long.case" format="2">
  <advance width="1836"/>
  <anchor x="918" y="0" name="_bottom"/>
  <anchor x="916" y="-318" name="bottom"/>
  <outline>
    <contour>
      <point x="147" y="707" type="line"/>
      <point x="1689" y="707" type="line"/>
      <point x="1689" y="753" type="line"/>
      <point x="147" y="753" type="line"/>
    </contour>
  </outline>
</glyph>
<glyph name="eight.dnom" format="2">
  <advance width="759"/>
  <note>
eight
</note>
  <outline>
    <contour>
      <point x="363" y="-24" type="curve" smooth="yes"/>
      <point x="577" y="-24"/>
      <point x="704" y="88"/>
      <point x="703" y="251" type="curve" smooth="yes"/>
      <point x="702" y="393"/>
      <point x="607" y="499"/>
      <point x="403" y="571" type="curve" smooth="yes"/>
      <point x="318" y="601"/>
      <point x="230" y="637"/>
      <point x="229" y="732" type="curve" smooth="yes"/>
      <point x="228" y="860"/>
      <point x="296" y="943"/>
      <point x="375" y="944" type="curve" smooth="yes"/>
      <point x="512" y="945"/>
      <point x="605" y="870"/>
      <point x="606" y="753" type="curve" smooth="yes"/>
      <point x="607" y="633"/>
      <point x="539" y="567"/>
      <point x="445" y="532" type="curve"/>
      <point x="471" y="531" type="line"/>
      <point x="585" y="574"/>
      <point x="635" y="654"/>
      <point x="634" y="752" type="curve" smooth="yes"/>
      <point x="633" y="869"/>
      <point x="542" y="964"/>
      <point x="383" y="963" type="curve" smooth="yes"/>
      <point x="218" y="962"/>
      <point x="93" y="873"/>
      <point x="93" y="728" type="curve" smooth="yes"/>
      <point x="93" y="590"/>
      <point x="172" y="506"/>
      <point x="316" y="455" type="curve" smooth="yes"/>
      <point x="488" y="394"/>
      <point x="542" y="336"/>
      <point x="542" y="218" type="curve" smooth="yes"/>
      <point x="542" y="71"/>
      <point x="479" y="-4"/>
      <point x="369" y="-5" type="curve" smooth="yes"/>
      <point x="187" y="-7"/>
      <point x="88" y="80"/>
      <point x="87" y="228" type="curve" smooth="yes"/>
      <point x="86" y="370"/>
      <point x="187" y="458"/>
      <point x="275" y="497" type="curve"/>
      <point x="252" y="500" type="line"/>
      <point x="122" y="448"/>
      <point x="56" y="347"/>
      <point x="57" y="228" type="curve" smooth="yes"/>
      <point x="58" y="69"/>
      <point x="163" y="-24"/>
    </contour>
  </outline>
</glyph>
<glyph name="four.dnom" format="2">
  <advance width="784"/>
  <note>
four
</note>
  <outline>
    <contour>
      <point x="460" y="0" type="line"/>
      <point x="621" y="0" type="line"/>
      <point x="621" y="327" type="line"/>
      <point x="524" y="233" type="line"/>
      <point x="733" y="233" type="line"/>
      <point x="733" y="257" type="line"/>
      <point x="524" y="257" type="line"/>
      <point x="621" y="217" type="line"/>
      <point x="621" y="508" type="line"/>
      <point x="460" y="508" type="line"/>
      <point x="460" y="217" type="line"/>
      <point x="554" y="257" type="line"/>
      <point x="91" y="257" type="line"/>
      <point x="83" y="241" type="line"/>
      <point x="259" y="452"/>
      <point x="465" y="722"/>
      <point x="546" y="961" type="curve"/>
      <point x="431" y="962" type="line"/>
      <point x="351" y="707"/>
      <point x="206" y="468"/>
      <point x="51" y="233" type="curve"/>
      <point x="554" y="233" type="line"/>
      <point x="460" y="327" type="line"/>
    </contour>
  </outline>
</glyph>
<glyph name="one.osf" format="2">
  <advance width="485"/>
  <outline>
    <contour>
      <point x="184" y="0" type="line"/>
      <point x="354" y="0" type="line"/>
      <point x="354" y="991" type="line"/>
      <point x="311" y="991" type="line"/>
      <point x="220" y="847"/>
      <point x="168" y="770"/>
      <point x="31" y="648" type="curve"/>
      <point x="60" y="622" type="line"/>
      <point x="127" y="682"/>
      <point x="185" y="743"/>
      <point x="236" y="820" type="curve"/>
      <point x="184" y="799" type="line"/>
    </contour>
  </outline>
</glyph>
<glyph name="six.dnom" format="2">
  <advance width="776"/>
  <note>
six
</note>
  <outline>
    <contour>
      <point x="387" y="-25" type="curve" smooth="yes"/>
      <point x="579" y="-25"/>
      <point x="719" y="69"/>
      <point x="719" y="263" type="curve" smooth="yes"/>
      <point x="719" y="432"/>
      <point x="599" y="564"/>
      <point x="407" y="564" type="curve" smooth="yes"/>
      <point x="266" y="564"/>
      <point x="218" y="492"/>
      <point x="186" y="388" type="curve"/>
      <point x="204" y="424" type="line"/>
      <point x="221" y="542"/>
      <point x="265" y="661"/>
      <point x="316" y="740" type="curve" smooth="yes"/>
      <point x="382" y="843"/>
      <point x="506" y="926"/>
      <point x="602" y="944" type="curve"/>
      <point x="602" y="970" type="line"/>
      <point x="408" y="919"/>
      <point x="267" y="830"/>
      <point x="177" y="699" type="curve" smooth="yes"/>
      <point x="99" y="586"/>
      <point x="60" y="457"/>
      <point x="60" y="323" type="curve" smooth="yes"/>
      <point x="60" y="79"/>
      <point x="185" y="-25"/>
    </contour>
    <contour>
      <point x="396" y="-7" type="curve" smooth="yes"/>
      <point x="256" y="-7"/>
      <point x="215" y="109"/>
      <point x="214" y="283" type="curve" smooth="yes"/>
      <point x="213" y="470"/>
      <point x="303" y="545"/>
      <point x="409" y="545" type="curve" smooth="yes"/>
      <point x="534" y="545"/>
      <point x="556" y="410"/>
      <point x="556" y="270" type="curve" smooth="yes"/>
      <point x="556" y="52"/>
      <point x="494" y="-7"/>
    </contour>
  </outline>
</glyph>
<glyph name="two.osf" format="2">
  <advance width="897"/>
  <outline>
    <contour>
      <point x="44" y="-5" type="line"/>
      <point x="831" y="-5" type="line"/>
      <point x="831" y="111" type="line"/>
      <point x="157" y="73" type="line"/>
      <point x="141" y="55" type="line"/>
      <point x="259" y="130"/>
      <point x="536" y="345"/>
      <point x="608" y="406" type="curve" smooth="yes"/>
      <point x="754" y="528"/>
      <point x="797" y="633"/>
      <point x="797" y="721" type="curve" smooth="yes"/>
      <point x="797" y="884"/>
      <point x="667" y="1002"/>
      <point x="456" y="1002" type="curve" smooth="yes"/>
      <point x="235" y="1002"/>
      <point x="92" y="882"/>
      <point x="92" y="720" type="curve" smooth="yes"/>
      <point x="92" y="711"/>
      <point x="92" y="701"/>
      <point x="93" y="691" type="curve"/>
      <point x="203" y="676" type="line"/>
      <point x="203" y="690" type="line" smooth="yes"/>
      <point x="203" y="842"/>
      <point x="266" y="975"/>
      <point x="437" y="975" type="curve" smooth="yes"/>
      <point x="586" y="975"/>
      <point x="658" y="840"/>
      <point x="658" y="701" type="curve" smooth="yes"/>
      <point x="658" y="539"/>
      <point x="505" y="427"/>
      <point x="316" y="250" type="curve" smooth="yes"/>
    </contour>
  </outline>
</glyph>
